<svg xmlns="http://www.w3.org/2000/svg" width="44" height="44" viewBox="0 0 44 44" fill="none">
          <path d="M10 44C4.47715 44 0 39.5228 0 34L0 0L44 0L44 44L10 44Z" fill="#1A1A1C" fill-opacity="0.1"/>
          <path d="M16.1728 24.1932L14 21.9995L16.1728 19.8059L18.3456 21.9995L16.1728 24.1932Z" fill="#F5F5F7"/>
          <path d="M23.2157 12.6936L25.3886 10.5L27.5614 12.6936L25.3886 14.8873L23.2157 12.6936Z" fill="#F5F5F7"/>
          <path d="M19.2456 27.2955L17.0728 25.1018L19.2456 22.9082L21.4184 25.1018L19.2456 27.2955Z" fill="#F5F5F7"/>
          <path d="M20.1429 15.7959L22.3157 13.6023L24.4885 15.7959L22.3157 17.9895L20.1429 15.7959Z" fill="#F5F5F7"/>
          <path d="M22.3184 30.3977L20.1456 28.2041L22.3184 26.0105L24.4912 28.2041L22.3184 30.3977Z" fill="#F5F5F7"/>
          <path d="M17.0701 18.8982L19.2429 16.7045L21.4157 18.8982L19.2429 21.0918L17.0701 18.8982Z" fill="#F5F5F7"/>
          <path d="M25.3912 33.5L23.2184 31.3064L25.3912 29.1127L27.564 31.3064L25.3912 33.5Z" fill="#F5F5F7"/>
          <path d="M20.1429 22.0005L22.3157 19.8068L24.4885 22.0005L22.3157 24.1941L20.1429 22.0005Z" fill="#F5F5F7"/>
          <path d="M25.6544 22.0005L27.8272 19.8068L30 22.0005L27.8272 24.1941L25.6544 22.0005Z" fill="#F5F5F7"/>
        </svg>