<svg xmlns="http://www.w3.org/2000/svg" viewBox="0 0 14 19" fill="none" class="stroke-secondary dark:stroke-accent h-[19px] w-[14px]"><path d="M6.75 13C10.2018 13 13 10.2018 13 6.75C13 3.29822 10.2018 0.5 6.75 0.5C3.29822 0.5 0.5 3.29822 0.5 6.75C0.5 10.2018 3.29822 13 6.75 13Z" stroke-linecap="round" stroke-linejoin="round"/><path d="M6.75 10.5C8.82107 10.5 10.5 8.82107 10.5 6.75C10.5 4.67893 8.82107 3 6.75 3C4.67893 3 3 4.67893 3 6.75C3 8.82107 4.67893 10.5 6.75 10.5Z" stroke-linecap="round" stroke-linejoin="round"/><path d="M10.501 11.7496V18L6.75043 16.125L3.00098 18V11.7502" stroke-linecap="round" stroke-linejoin="round"/></svg>