<svg xmlns="http://www.w3.org/2000/svg" width="24" height="25" viewBox="0 0 24 25" fill="none"><g clip-path="url(#clip0_1182_25100)"><path d="M17.6176 6.468L19.0706 5.015L20.4846 6.429L19.0316 7.882C20.4673 9.67917 21.1605 11.9579 20.9687 14.2501C20.7768 16.5424 19.7146 18.6742 18.0001 20.2077C16.2856 21.7412 14.0489 22.5601 11.7496 22.4961C9.45018 22.4321 7.26258 21.4901 5.63604 19.8635C4.00951 18.237 3.0675 16.0494 3.00349 13.75C2.93948 11.4506 3.75832 9.21402 5.29185 7.49951C6.82538 5.785 8.95718 4.72275 11.2494 4.53092C13.5417 4.33909 15.8204 5.03223 17.6176 6.468ZM11.9996 20.5C12.9188 20.5 13.8291 20.3189 14.6784 19.9672C15.5276 19.6154 16.2993 19.0998 16.9493 18.4497C17.5993 17.7997 18.1149 17.0281 18.4667 16.1788C18.8185 15.3295 18.9996 14.4193 18.9996 13.5C18.9996 12.5807 18.8185 11.6705 18.4667 10.8212C18.1149 9.97194 17.5993 9.20026 16.9493 8.55025C16.2993 7.90024 15.5276 7.38463 14.6784 7.03284C13.8291 6.68106 12.9188 6.5 11.9996 6.5C10.1431 6.5 8.36258 7.2375 7.04982 8.55025C5.73707 9.86301 4.99957 11.6435 4.99957 13.5C4.99957 15.3565 5.73707 17.137 7.04982 18.4497C8.36258 19.7625 10.1431 20.5 11.9996 20.5ZM10.9996 8.5H12.9996V14.5H10.9996V8.5ZM7.99957 1.5H15.9996V3.5H7.99957V1.5Z" class="dark:fill-accent fill-black dark:opacity-20"/></g><defs><clipPath id="clip0_1182_25100_instance_02"><rect width="24" height="24" fill="white" transform="translate(0 0.5)"/></clipPath></defs></svg>