<svg xmlns="http://www.w3.org/2000/svg" width="24" height="25" viewBox="0 0 24 25" fill="none"><g clip-path="url(#clip0_1182_25093)"><path d="M17 3.5H21C21.2652 3.5 21.5196 3.60536 21.7071 3.79289C21.8946 3.98043 22 4.23478 22 4.5V20.5C22 20.7652 21.8946 21.0196 21.7071 21.2071C21.5196 21.3946 21.2652 21.5 21 21.5H3C2.73478 21.5 2.48043 21.3946 2.29289 21.2071C2.10536 21.0196 2 20.7652 2 20.5V4.5C2 4.23478 2.10536 3.98043 2.29289 3.79289C2.48043 3.60536 2.73478 3.5 3 3.5H7V1.5H9V3.5H15V1.5H17V3.5ZM20 11.5H4V19.5H20V11.5ZM15 5.5H9V7.5H7V5.5H4V9.5H20V5.5H17V7.5H15V5.5ZM6 13.5H8V15.5H6V13.5ZM11 13.5H13V15.5H11V13.5ZM16 13.5H18V15.5H16V13.5Z" class="dark:fill-accent fill-black dark:opacity-20"/></g><defs><clipPath id="clip0_1182_25093_instance_01"><rect width="24" height="24" fill="white" transform="translate(0 0.5)"/></clipPath></defs></svg>